# xmcd CD database file
#
# Track frame offsets:
#	150
#	36233
#	58614
#	83136
#	151143
#	171882
#	191474
#	209511
#	228744
#	268166
#	314529
#
# Disc length: 4439 seconds
#
# Revision: 3
# Processed by: cddbd v1.5.2PL0 Copyright (c) Steve Scherf et al.
# Submitted via: Feurio! 1.68 - http://www.feurio.com
#
DISCID=9911550b
DTITLE=Paul Camilleri - PART 2 PC 2008
DYEAR=1900
DGENRE=Blues
TTITLE0=??? - the thrill is gone
TTITLE1=??? - in the middle of the night
TTITLE2=??? - river of love
TTITLE3=??? - you've been so good to me
TTITLE4=??? - count on you
TTITLE5=??? - crazy for you
TTITLE6=??? - can't get any better
TTITLE7=??? - keep me movin'
TTITLE8=??? - another sad goodbye
TTITLE9=??? - pride and joy
TTITLE10=??? - you're fine
EXTD=Songwriter: Paul Camilleri\r\nKomponist: Paul Camilleri\r\nArrangement: 
EXTD=Paul Camilleri
EXTT0=
EXTT1=
EXTT2=
EXTT3=
EXTT4=
EXTT5=
EXTT6=
EXTT7=
EXTT8=
EXTT9=
EXTT10=
PLAYORDER=
